<svg version="1.1" class="clearos-svg clearfoundation app-vendor-clearfoundation app-free app-category-server app-sub-category-file" viewBox="0 0 400 400" preserveAspectRatio="xMinYMin" xmlns="http://www.w3.org/2000/svg" xmlns:xlink= "http://www.w3.org/1999/xlink">
<path fill="#AA0707" d="M91.666,184.647"/>
<path fill="#AA0707" d="M123.245,247.805"/>
<path fill="#AA0707" d="M91.666,184.647"/>
<path fill="#AA0707" d="M123.245,247.805"/>
<g>
	<path fill="#686868" d="M332.061,156.805H63.778c-10.279,0-18.603,8.339-18.603,18.603v48.051c0,10.294,8.355,18.618,18.603,18.618
		h268.283c10.357,0,18.636-8.324,18.636-18.618v-48.035C350.693,165.113,342.402,156.805,332.061,156.805z M311.125,213.416h-69.773
		c-7.692,0-13.951-6.29-13.951-13.968c0-7.725,6.273-13.952,13.951-13.952h69.773c7.741,0,13.999,6.243,13.999,13.952
		C325.093,207.143,318.85,213.416,311.125,213.416z"/>
	<path fill="#686868" d="M328.372,283.111c0.03-6.889-5.52-12.438-12.358-12.438h-49.629c-3.468,0-6.589,1.419-8.859,3.752
		c-2.363,2.271-3.846,5.392-3.846,8.923v49.58c0,6.922,5.549,12.438,12.422,12.438c6.813,0,12.406-5.55,12.406-12.423v-37.457
		h37.474C322.854,295.486,328.372,289.922,328.372,283.111z"/>
	<path fill="#686868" d="M133.93,270.831H84.319c-6.858,0-12.407,5.549-12.407,12.405c0,6.796,5.565,12.408,12.391,12.408h37.489
		l0.016,37.486c0,6.873,5.549,12.407,12.407,12.438c6.811,0,12.391-5.564,12.391-12.406v-49.626c0-3.438-1.45-6.604-3.752-8.859
		C140.614,272.344,137.461,270.799,133.93,270.831z"/>
	<path fill="#686868" d="M266.385,129.8h49.629c6.843,0,12.392-5.549,12.358-12.422c0-6.811-5.52-12.391-12.392-12.391
		l-37.488-0.016V67.498c0-6.842-5.58-12.407-12.391-12.407c-6.892,0-12.438,5.549-12.438,12.407v49.627
		c0,3.531,1.481,6.653,3.831,8.923C259.796,128.365,262.917,129.8,266.385,129.8z"/>
	<path fill="#686868" d="M71.912,117.283c0,6.842,5.549,12.407,12.407,12.407h49.611c3.531,0.032,6.7-1.498,8.923-3.831
		c2.302-2.271,3.752-5.423,3.752-8.875V67.325c0-6.826-5.549-12.407-12.422-12.375c-6.842,0.031-12.391,5.549-12.391,12.422v37.52
		H84.303C77.477,104.892,71.912,110.441,71.912,117.283z"/>
	<path fill="#686868" d="M308.98,58.764c8.262,0,14.943,6.7,14.943,14.945c0,8.261-6.684,14.961-14.943,14.961
		s-14.944-6.7-14.944-14.961C294.036,65.464,300.721,58.764,308.98,58.764z"/>
	<path fill="#686868" d="M337.673,30.088c8.261,0,14.945,6.7,14.945,14.945c0,8.245-6.686,14.945-14.945,14.945
		s-14.944-6.7-14.944-14.945C322.729,36.788,329.412,30.088,337.673,30.088z"/>
	<path fill="#686868" d="M365.262,2.5c8.261,0,14.944,6.7,14.944,14.945c0,8.245-6.685,14.945-14.945,14.945
		c-8.26,0-14.943-6.7-14.943-14.945C350.316,9.2,357.001,2.5,365.262,2.5z"/>
	<path fill="#686868" d="M34.739,2.5C43,2.5,49.684,9.2,49.684,17.445c0,8.245-6.684,14.945-14.945,14.945
		c-8.245,0-14.945-6.7-14.945-14.945C19.794,9.2,26.494,2.5,34.739,2.5z"/>
	<path fill="#686868" d="M63.446,31.176c8.261,0,14.96,6.7,14.96,14.945c0,8.26-6.7,14.96-14.96,14.96
		c-8.245,0-14.945-6.7-14.945-14.96C48.501,37.876,55.201,31.176,63.446,31.176z"/>
	<path fill="#686868" d="M91.05,58.764c8.261,0,14.945,6.7,14.945,14.945c0,8.261-6.684,14.961-14.945,14.961
		c-8.261,0-14.945-6.7-14.945-14.961C76.105,65.464,82.79,58.764,91.05,58.764z"/>
	<path fill="#686868" d="M91.066,311.299c8.261,0,14.961,6.7,14.961,14.944c0,8.261-6.7,14.961-14.961,14.961
		c-8.245,0-14.945-6.7-14.945-14.961C76.121,317.999,82.821,311.299,91.066,311.299z"/>
	<path fill="#686868" d="M62.358,340.006c8.261,0,14.961,6.686,14.961,14.945c0,8.259-6.7,14.945-14.961,14.945
		c-8.245,0-14.945-6.687-14.945-14.945C47.413,346.691,54.114,340.006,62.358,340.006z"/>
	<path fill="#686868" d="M34.739,367.596c8.261,0,14.945,6.698,14.945,14.959c0,8.245-6.684,14.945-14.945,14.945
		c-8.245,0-14.945-6.7-14.945-14.945C19.794,374.294,26.494,367.596,34.739,367.596z"/>
	<path fill="#686868" d="M365.262,367.596c8.261,0,14.944,6.698,14.944,14.959c0,8.245-6.685,14.945-14.945,14.945
		c-8.26,0-14.943-6.7-14.943-14.945C350.316,374.294,357.001,367.596,365.262,367.596z"/>
	<path fill="#686868" d="M336.568,338.871c8.262,0,14.978,6.699,14.978,14.961c0,8.275-6.716,14.961-14.978,14.961
		c-8.261,0-14.961-6.686-14.961-14.961C321.607,345.57,328.309,338.871,336.568,338.871z"/>
	<path fill="#686868" d="M308.98,311.268c8.262,0,14.978,6.699,14.978,14.961s-6.716,14.978-14.978,14.978
		c-8.26,0-14.961-6.716-14.961-14.978S300.721,311.268,308.98,311.268z"/>
</g>
</svg>
